<svg xmlns="http://www.w3.org/2000/svg" viewBox="0 0 410.26 572.85"><defs><style>.cls-1{fill:none;stroke:#000;stroke-miterlimit:10;stroke-width:5px;}</style></defs><title>Asset 1</title><g id="Layer_2" data-name="Layer 2"><g id="Layer_1-2" data-name="Layer 1"><path class="cls-1" d="M218,570.35H193.73a9.47,9.47,0,0,0-2.24-.73c-7-.72-14-1.21-21-2A203.77,203.77,0,0,1,59,516C48.7,506.82,39.05,497,31.52,485.42A147.06,147.06,0,0,1,9.1,424.55c-2.62-18.83-4.46-37.71-5.68-56.68-.14-2.24-.63-4.47-.92-6.7v-92.7a18.52,18.52,0,0,1,2.09,1.16q26.57,20.89,53.14,41.84,41.43,32.61,82.9,65.23c1.94,1.55,2.81,3,2.57,5.63-1.36,14.41.83,28.25,7.52,41.16,7.58,14.56,18.4,25.91,34.41,30.86,22.77,7,43.88,3.11,62.81-11.21C262.79,431.88,272,417,273.76,398.3c2.28-24.22-7-43.64-26.06-58.34a66.11,66.11,0,0,0-41.89-14.17c-21.74.09-43.54,0-65.28,0a7,7,0,0,1-3.88-.93c-15.24-10.62-30.48-21.25-45.53-32.12-23.54-17-46.88-34.17-70.32-51.26-5.34-3.88-10.68-7.86-16.07-11.65a3.55,3.55,0,0,1-1.36-4.41c.25-.63,2-1,3-1q34.36-.15,68.68-.15h68.43c14.66,0,29.27.25,43.93-.05,14.12-.29,28-2.28,41.3-7.52,19.56-7.72,30-24,27.71-43.73-2.71-22.91-15.09-39.36-35.72-49-16.45-7.67-33.78-7.62-50.28.15-17.81,8.39-29.51,22.37-34.22,41.84-1.7,7.08-1.5,14.26-1.4,21.5,0,1.89-.54,2.52-2.48,2.52q-63.48-.15-126.92-.15a9.35,9.35,0,0,1-2.86-.92V167.52a37.44,37.44,0,0,0,.83-4,157.38,157.38,0,0,1,18-61.4c10-18.64,23.25-34.51,38.93-48.53,35.09-31.41,76.2-48,123.18-50.14,3.3-.14,6.55-.63,9.85-1h3.4a9.35,9.35,0,0,0,1.65.29,221.49,221.49,0,0,1,41.15,4.32,195.11,195.11,0,0,1,42,13.2c25.38,11.31,47.12,27.67,65.91,48.1,16.3,17.76,28.44,38,35.43,61.1a166.59,166.59,0,0,1,4.12,80.57,154.28,154.28,0,0,1-23.54,57.42c-2.57,3.88-5.34,7.62-8.1,11.6.73.58,1.45,1.11,2.08,1.7,4.81,4.32,10,8.3,14.27,13.1,19.17,21.55,29.95,47.08,34.32,75.42.63,4.08,1.26,8.11,1.84,12.18v23.79c-.29,1.55-.73,3.15-.87,4.7a159.55,159.55,0,0,1-7.14,34.32c-8.25,24.65-22.23,45.77-40.52,64.06a204.83,204.83,0,0,1-74.31,48,210.22,210.22,0,0,1-51.06,12C228.52,569,223.28,569.72,218,570.35ZM31.67,329c-.34.49-.49.63-.49.73.05,2.76.05,5.48.15,8.25,1.16,26.4,2.28,52.85,6.5,79,3.21,19.85,9.9,38.2,22.52,54.17a177.43,177.43,0,0,0,52.42,44.65,170.79,170.79,0,0,0,57.66,19.9,215.63,215.63,0,0,0,48.1,2.23c15.58-1,30.86-3.35,45.76-8a173.35,173.35,0,0,0,75.77-47.46c24.46-26.12,36.79-57,35.77-92.9a122.74,122.74,0,0,0-12.57-51.15c-8.93-18.35-22.28-32.91-38.88-44.36-26.65-18.4-56.3-29.56-88-35.09-25.39-4.42-51.11-5.54-76.83-5.54q-33.65,0-67.22,0a11.8,11.8,0,0,0-1.75.49c1.94,1.36,3.54,2.43,5.1,3.49q25.55,17.83,51.1,35.63a6.75,6.75,0,0,0,3.55,1.21c19.31.24,38.63.54,57.95.58a82.56,82.56,0,0,1,26,3.89c33.78,11.11,57.27,32.85,67.61,67.31,5.68,18.83,4.8,38-1.6,56.59-7.82,22.72-23,39.61-43.2,52.13-14.12,8.74-29.75,13-46.16,14.08-11.5.77-22.95,0-34.07-3.45-10.48-3.3-19.65-9.08-28.1-15.87-22.57-18.25-35.33-41.64-36.45-70.91,0-1.8,0-3.3-1.74-4.71-23.74-19.41-47.33-38.87-71-58.34C37,333.36,34.39,331.22,31.67,329Zm236-93.82c1,.29,1.56.54,2.14.68,16.65,4.32,32.66,10.2,47.61,18.88,5.63,3.3,10.14,3.11,14.66-1.6a67.67,67.67,0,0,0,9.61-12.38c12.18-20.72,16.6-43.43,15.92-67.26A125.11,125.11,0,0,0,346.12,124C338.36,107.24,327.34,93,314,80.3c-25-23.78-54.65-38.24-88.77-43.15a219.23,219.23,0,0,0-31.4-2c-32-.09-61.88,7.77-89.06,25.05-24.61,15.63-44.55,35.52-57.46,62A121.72,121.72,0,0,0,36.57,157c-.53,3.45-.63,3.4,2.86,3.4H102c5.1,0,5.25,0,6.31-5,3.16-14.41,10.15-26.89,19.71-37.86,15.14-17.37,34.07-28.29,57.12-31.25,17.48-2.24,34.51-.39,50.33,7.52,29,14.51,47.32,37.47,52.18,69.84,3.44,22.91-.34,44.65-14.32,63.82C271.62,230,269.73,232.41,267.64,235.17Z"/><path class="cls-1" d="M31.67,329c2.72,2.23,5.34,4.37,7.91,6.5q35.46,29.2,71,58.34c1.69,1.36,1.65,2.91,1.74,4.71,1.17,29.31,13.88,52.71,36.45,70.91,8.45,6.84,17.62,12.57,28.1,15.87,11.12,3.49,22.62,4.22,34.07,3.45,16.41-1.12,32.09-5.34,46.16-14.08,20.19-12.52,35.38-29.41,43.2-52.13,6.4-18.58,7.23-37.71,1.6-56.59-10.34-34.46-33.83-56.25-67.61-67.31a84,84,0,0,0-26-3.89c-19.32,0-38.64-.34-57.95-.58a6.75,6.75,0,0,1-3.55-1.21q-25.62-17.76-51.1-35.63c-1.56-1.06-3.16-2.13-5.1-3.49a11.8,11.8,0,0,1,1.75-.49q33.63,0,67.22,0c25.72,0,51.44,1.07,76.83,5.54,31.74,5.53,61.39,16.74,88,35.09,16.6,11.45,29.95,26.06,38.88,44.36a124.29,124.29,0,0,1,12.57,51.15c1,35.92-11.31,66.78-35.77,92.9a173.35,173.35,0,0,1-75.77,47.46c-14.9,4.66-30.18,7-45.76,8a215.49,215.49,0,0,1-48.1-2.23,170.79,170.79,0,0,1-57.66-19.9,176.31,176.31,0,0,1-52.42-44.65C47.73,455.13,41,436.83,37.83,417c-4.22-26.16-5.34-52.61-6.5-79-.1-2.77-.1-5.49-.15-8.25C31.14,329.62,31.33,329.48,31.67,329Z"/><path class="cls-1" d="M267.64,235.17c2.09-2.76,4-5.19,5.78-7.62,14-19.22,17.81-41,14.32-63.82-4.86-32.37-23.2-55.38-52.18-69.89-15.87-7.91-32.9-9.8-50.33-7.52-23,3-42,13.93-57.12,31.25-9.56,11-16.55,23.45-19.71,37.86-1.11,5-1.26,4.95-6.31,4.95H39.48c-3.49,0-3.39,0-2.86-3.4a123.32,123.32,0,0,1,10.73-34.84c12.86-26.41,32.8-46.3,57.36-61.88,27.18-17.23,57.08-25.14,89.06-25a235,235,0,0,1,31.41,2C259.3,42.1,289,56.57,313.94,80.35,327.24,93,338.31,107.29,346.07,124a124.9,124.9,0,0,1,11.46,49.5c.68,23.84-3.74,46.5-15.92,67.27A67.67,67.67,0,0,1,332,253.18c-4.56,4.71-9.08,4.9-14.66,1.6-14.9-8.69-30.91-14.61-47.61-18.88C269.2,235.71,268.61,235.46,267.64,235.17Z"/></g></g></svg>